<svg xmlns="http://www.w3.org/2000/svg" width="192" height="192" viewBox="0 0 192 192">
  <defs>
    <linearGradient id="bg" x1="0%" y1="0%" x2="100%" y2="100%">
      <stop offset="0%" style="stop-color:#2d5016;stop-opacity:1" />
      <stop offset="100%" style="stop-color:#4a7c59;stop-opacity:1" />
    </linearGradient>
    <linearGradient id="gold" x1="0%" y1="0%" x2="100%" y2="100%">
      <stop offset="0%" style="stop-color:#d4af37;stop-opacity:1" />
      <stop offset="100%" style="stop-color:#f4e28c;stop-opacity:1" />
    </linearGradient>
  </defs>
  
  <!-- Background -->
  <rect width="192" height="192" fill="url(#bg)" rx="32"/>
  
  <!-- Circular Border -->
  <circle cx="96" cy="96" r="80" fill="none" stroke="url(#gold)" stroke-width="3"/>
  
  <!-- Center DE Letters -->
  <text x="96" y="110" font-family="Playfair Display, serif" font-size="48" font-weight="700" 
        text-anchor="middle" fill="url(#gold)">DE</text>
  
  <!-- Top Curved Text -->
  <defs>
    <path id="circle-top" d="M 96,16 A 80,80 0 0,1 176,96"/>
  </defs>
  <text font-family="Poppins, sans-serif" font-size="10" font-weight="600" fill="#faf9f6">
    <textPath href="#circle-top" startOffset="5%">DALSTON ESTATES</textPath>
  </text>
  
  <!-- Bottom Curved Text -->
  <defs>
    <path id="circle-bottom" d="M 176,96 A 80,80 0 0,1 96,176"/>
  </defs>
  <text font-family="Poppins, sans-serif" font-size="10" font-weight="600" fill="#faf9f6">
    <textPath href="#circle-bottom" startOffset="10%">PREMIUM AGRICULTURE</textPath>
  </text>
  
  <!-- Agricultural Accent Elements -->
  <g opacity="0.3">
    <!-- Wheat stalks -->
    <path d="M 40,40 L 45,50 L 40,60" fill="none" stroke="#d4af37" stroke-width="2"/>
    <path d="M 152,40 L 147,50 L 152,60" fill="none" stroke="#d4af37" stroke-width="2"/>
    <path d="M 40,132 L 45,142 L 40,152" fill="none" stroke="#d4af37" stroke-width="2"/>
    <path d="M 152,132 L 147,142 L 152,152" fill="none" stroke="#d4af37" stroke-width="2"/>
  </g>
</svg>
